<svg xmlns="http://www.w3.org/2000/svg" width="1390" height="830" viewBox="0 0 1390 830" font-family="Inter, ui-sans-serif, system-ui, sans-serif">
<defs><marker id="a" viewBox="0 0 10 10" refX="9" refY="5" markerWidth="7" markerHeight="7" orient="auto-start-reverse"><path d="M 0 0 L 10 5 L 0 10 z" fill="#e8a33d"/></marker></defs>
<rect width="1390" height="830" fill="#08090a"/>
<rect x="70" y="150" width="1130" height="644" rx="26" fill="none" stroke="#3a414c" stroke-opacity="1" stroke-width="1.8"/>
<rect x="100" y="180" width="600" height="250" rx="18" fill="none" stroke="#e8a33d" stroke-opacity="0.55" stroke-width="1.6"/>
<text x="676" y="210" fill="#e8a33d" fill-opacity="0.75" font-size="12" font-weight="600" text-anchor="end" letter-spacing="1.6">THE RING · ONCE</text>
<svg x="177.1" y="297.0" width="65.8" height="22" viewBox="0 0 383 128" fill="none">
<path d="M327.262 119.94V127.998H382.57V91.6548H374.511V119.94H327.262ZM327.262 0V8.05844H374.511V36.3452H382.57V0H327.262ZM298.74 62.3411V43.6158H311.382C317.546 43.6158 319.758 45.6696 319.758 51.2803V54.5982C319.758 60.3657 317.624 62.3411 311.382 62.3411H298.74ZM318.808 65.6589C324.575 64.1578 328.604 58.7842 328.604 52.3856C328.604 48.3564 327.025 44.7211 324.023 41.7972C320.23 38.1619 315.172 36.3452 308.615 36.3452H290.838V91.6529H298.74V69.6097H310.592C316.675 69.6097 319.125 72.1378 319.125 78.4599V91.6548H327.184V79.7239C327.184 71.0325 325.13 67.7147 318.808 66.7662V65.6589ZM252.282 67.4756H276.618V60.207H252.282V43.6139H278.988V36.3452H244.222V91.6529H280.173V84.3842H252.282V67.4756ZM225.812 70.3995V74.1916C225.812 82.1717 222.888 84.78 215.541 84.78H213.803C206.454 84.78 202.899 82.4088 202.899 71.4264V56.5717C202.899 45.5109 206.613 43.2181 213.96 43.2181H215.539C222.73 43.2181 225.021 45.9048 225.099 53.3322H233.791C233.001 42.4283 225.732 35.5555 214.828 35.5555C209.535 35.5555 205.11 37.2153 201.792 40.3745C196.814 45.0367 194.049 52.9383 194.049 63.9991C194.049 74.6659 196.42 82.5675 201.318 87.4649C204.636 90.7044 209.219 92.4426 213.723 92.4426C218.463 92.4426 222.81 90.5456 225.021 86.438H226.126V91.6529H233.395V63.1309H211.983V70.3995H225.812ZM156.126 43.6139H164.739C172.878 43.6139 177.303 45.6677 177.303 56.7304V71.2677C177.303 82.3285 172.878 84.3842 164.739 84.3842H156.126V43.6139ZM165.449 91.6548C180.541 91.6548 186.149 80.1982 186.149 64.001C186.149 47.5666 180.145 36.3471 165.29 36.3471H148.223V91.6548H165.449ZM110.063 67.4756H134.399V60.207H110.063V43.6139H136.768V36.3452H102.002V91.6529H137.954V84.3842H110.063V67.4756ZM63.4464 36.3452H55.3879V91.6529H91.7332V84.3842H63.4464V36.3452ZM0 91.6548V128H55.3076V119.94H8.05844V91.6548H0ZM0 0V36.3452H8.05844V8.05844H55.3076V0H0Z" fill="#ffffff"/>
</svg>
<text x="210" y="348" fill="#8d97a6" fill-opacity="0.7" font-size="12" font-weight="400" text-anchor="middle">holds the seed</text>
<rect x="322" y="280" width="156" height="56" rx="14" fill="#2a1d08" stroke="#e8a33d" stroke-opacity="0.65" stroke-width="1.4"/>
<text x="400" y="313" fill="#eef2f8" fill-opacity="1.0" font-size="16" font-weight="500" text-anchor="middle">browser</text>
<text x="400" y="348" fill="#8d97a6" fill-opacity="0.7" font-size="12" font-weight="400" text-anchor="middle">carries bytes</text>
<rect x="512" y="280" width="156" height="56" rx="14" fill="#2a1d08" stroke="#e8a33d" stroke-opacity="0.65" stroke-width="1.4"/>
<text x="590" y="313" fill="#eef2f8" fill-opacity="1.0" font-size="16" font-weight="500" text-anchor="middle">broker</text>
<text x="590" y="348" fill="#8d97a6" fill-opacity="0.7" font-size="12" font-weight="400" text-anchor="middle">speaks LKRP</text>
<path d="M260 308 H318" stroke="#e8a33d" stroke-opacity="0.6" stroke-width="1.5" marker-end="url(#a)"/>
<path d="M482 308 H508" stroke="#e8a33d" stroke-opacity="0.6" stroke-width="1.5" marker-end="url(#a)"/>
<text x="124" y="408" fill="#e8a33d" fill-opacity="0.6" font-size="12.5" font-weight="400" text-anchor="start">one press admits the broker · then it seals the agent's keys</text>
<rect x="730" y="180" width="440" height="250" rx="18" fill="none" stroke="#5fb3e0" stroke-opacity="0.55" stroke-width="1.6"/>
<text x="754" y="210" fill="#5fb3e0" fill-opacity="0.8" font-size="12" font-weight="600" text-anchor="start" letter-spacing="1.6">ON CHAIN · ENSv2</text>
<rect x="754" y="232" width="200" height="62" rx="14" fill="#0b2130" stroke="#5fb3e0" stroke-opacity="0.65" stroke-width="1.4"/>
<text x="854" y="262" fill="#eef2f8" fill-opacity="1.0" font-size="14.5" font-weight="500" text-anchor="middle">AgentResolver</text>
<text x="854" y="281" fill="#5fb3e0" fill-opacity="0.65" font-size="11" font-weight="400" text-anchor="middle">computed, stores none</text>
<rect x="754" y="308" width="200" height="62" rx="14" fill="#0b2130" stroke="#5fb3e0" stroke-opacity="0.65" stroke-width="1.4"/>
<text x="854" y="338" fill="#eef2f8" fill-opacity="1.0" font-size="14.5" font-weight="500" text-anchor="middle">AllowanceExecutor</text>
<text x="854" y="357" fill="#5fb3e0" fill-opacity="0.65" font-size="11" font-weight="400" text-anchor="middle">runs the call</text>
<rect x="974" y="232" width="172" height="166" rx="14" fill="#0b2130" stroke="#5fb3e0" stroke-opacity="0.65" stroke-width="1.4"/>
<svg x="1047.0" y="251.0" width="26.1" height="30" viewBox="0 0 80 92" fill="none">
<g id="Group 2243409">
<path id="Vector" d="M38.9515 0.848681L13.7395 42.3331C13.5418 42.6584 13.0824 42.6947 12.8372 42.4035C10.6176 39.7681 2.3486 28.5562 12.5807 18.3372C21.9175 9.01238 33.8099 2.36398 38.2174 0.0661478C38.7175 -0.194552 39.2442 0.367137 38.9515 0.848681Z" fill="#CEE1E8"/>
<path id="Vector_2" d="M37.5575 91.1735C38.0606 91.5257 38.6807 90.9251 38.3434 90.4122C32.712 81.8469 13.9923 53.3481 11.4064 49.0701C8.85586 44.8504 3.83929 37.8378 3.4208 31.8381C3.37904 31.2391 2.55081 31.1175 2.34247 31.6808C2.00646 32.5892 1.64873 33.6734 1.31533 34.912C-2.89355 50.5471 3.21904 67.138 16.4943 76.4302L37.5575 91.1736V91.1735Z" fill="#CEE1E8"/>
<path id="Vector_3" d="M41.0206 90.4359L66.2325 48.9514C66.4303 48.6261 66.8897 48.5899 67.1349 48.8811C69.3545 51.5165 77.6235 62.7284 67.3914 72.9473C58.0546 82.2722 46.1622 88.9206 41.7547 91.2184C41.2547 91.4791 40.7279 90.9174 41.0206 90.4359Z" fill="#CEE1E8"/>
<path id="Vector_4" d="M42.4425 0.105463C41.9394 -0.246724 41.3194 0.35389 41.6566 0.866798C47.288 9.43208 66.0077 37.9309 68.5936 42.2089C71.1442 46.4286 76.1607 53.4412 76.5792 59.4409C76.621 60.0398 77.4492 60.1614 77.6576 59.5982C77.9936 58.6898 78.3513 57.6056 78.6847 56.367C82.8936 40.7319 76.781 24.141 63.5057 14.8488L42.4425 0.105463Z" fill="#CEE1E8"/>
</g>
</svg>
<text x="996" y="310" fill="#5fb3e0" fill-opacity="0.85" font-size="12" font-weight="400" text-anchor="start" font-family="ui-monospace, SFMono-Regular, Menlo, monospace">harness.eth</text>
<text x="1010" y="334" fill="#5fb3e0" fill-opacity="0.85" font-size="12" font-weight="400" text-anchor="start" font-family="ui-monospace, SFMono-Regular, Menlo, monospace">└ acme.harness.eth</text>
<text x="1024" y="358" fill="#5fb3e0" fill-opacity="0.85" font-size="12" font-weight="400" text-anchor="start" font-family="ui-monospace, SFMono-Regular, Menlo, monospace">└ runner</text>
<rect x="100" y="464" width="720" height="300" rx="18" fill="none" stroke="#9b8cf5" stroke-opacity="0.55" stroke-width="1.6"/>
<text x="124" y="494" fill="#9b8cf5" fill-opacity="0.8" font-size="12" font-weight="600" text-anchor="start" letter-spacing="1.6">THE HOST · ON THE MESH</text>
<rect x="124.0" y="520" width="325.0" height="96" rx="14" fill="#191630" stroke="#9b8cf5" stroke-opacity="0.65" stroke-width="1.4"/>
<text x="286" y="562" fill="#eef2f8" fill-opacity="1.0" font-size="15.5" font-weight="500" text-anchor="middle">sshd</text>
<text x="286" y="586" fill="#9b8cf5" fill-opacity="0.7" font-size="11.5" font-weight="400" text-anchor="middle">AuthorizedKeysCommand</text>
<rect x="471.0" y="520" width="325.0" height="96" rx="14" fill="#191630" stroke="#9b8cf5" stroke-opacity="0.65" stroke-width="1.4"/>
<text x="634" y="562" fill="#eef2f8" fill-opacity="1.0" font-size="15.5" font-weight="500" text-anchor="middle">its secrets</text>
<text x="634" y="586" fill="#9b8cf5" fill-opacity="0.7" font-size="11.5" font-weight="400" text-anchor="middle">sealed under the ring</text>
<rect x="124.0" y="638" width="325.0" height="96" rx="14" fill="#191630" stroke="#9b8cf5" stroke-opacity="0.65" stroke-width="1.4"/>
<svg x="251.5" y="660.0" width="24.0" height="24" viewBox="0 0 24 24" fill="#D97757"><path d="m4.7144 15.9555 4.7174-2.6471.079-.2307-.079-.1275h-.2307l-.7893-.0486-2.6956-.0729-2.3375-.0971-2.2646-.1214-.5707-.1215-.5343-.7042.0546-.3522.4797-.3218.686.0608 1.5179.1032 2.2767.1578 1.6514.0972 2.4468.255h.3886l.0546-.1579-.1336-.0971-.1032-.0972L6.973 9.8356l-2.55-1.6879-1.3356-.9714-.7225-.4918-.3643-.4614-.1578-1.0078.6557-.7225.8803.0607.2246.0607.8925.686 1.9064 1.4754 2.4893 1.8336.3643.3035.1457-.1032.0182-.0728-.164-.2733-1.3539-2.4467-1.445-2.4893-.6435-1.032-.17-.6194c-.0607-.255-.1032-.4674-.1032-.7285L6.287.1335 6.6997 0l.9957.1336.419.3642.6192 1.4147 1.0018 2.2282 1.5543 3.0296.4553.8985.2429.8318.091.255h.1579v-.1457l.1275-1.706.2368-2.0947.2307-2.6957.0789-.7589.3764-.9107.7468-.4918.5828.2793.4797.686-.0668.4433-.2853 1.8517-.5586 2.9021-.3643 1.9429h.2125l.2429-.2429.9835-1.3053 1.6514-2.0643.7286-.8196.85-.9046.5464-.4311h1.0321l.759 1.1293-.34 1.1657-1.0625 1.3478-.8804 1.1414-1.2628 1.7-.7893 1.36.0729.1093.1882-.0183 2.8535-.607 1.5421-.2794 1.8396-.3157.8318.3886.091.3946-.3278.8075-1.967.4857-2.3072.4614-3.4364.8136-.0425.0304.0486.0607 1.5482.1457.6618.0364h1.621l3.0175.2247.7892.522.4736.6376-.079.4857-1.2142.6193-1.6393-.3886-3.825-.9107-1.3113-.3279h-.1822v.1093l1.0929 1.0686 2.0035 1.8092 2.5075 2.3314.1275.5768-.3218.4554-.34-.0486-2.2039-1.6575-.85-.7468-1.9246-1.621h-.1275v.17l.4432.6496 2.3436 3.5214.1214 1.0807-.17.3521-.6071.2125-.6679-.1214-1.3721-1.9246L14.38 17.959l-1.1414-1.9428-.1397.079-.674 7.2552-.3156.3703-.7286.2793-.6071-.4614-.3218-.7468.3218-1.4753.3886-1.9246.3157-1.53.2853-1.9004.17-.6314-.0121-.0425-.1397.0182-1.4328 1.9672-2.1796 2.9446-1.7243 1.8456-.4128.164-.7164-.3704.0667-.6618.4008-.5889 2.386-3.0357 1.4389-1.882.929-1.0868-.0062-.1579h-.0546l-6.3385 4.1164-1.1293.1457-.4857-.4554.0608-.7467.2307-.2429 1.9064-1.3114Z"/></svg>
<svg x="297.5" y="660.0" width="24.0" height="24" viewBox="0 0 24 24" fill="#ffffff"><path d="M22.2819 9.8211a5.9847 5.9847 0 0 0-.5157-4.9108 6.0462 6.0462 0 0 0-6.5098-2.9A6.0651 6.0651 0 0 0 4.9807 4.1818a5.9847 5.9847 0 0 0-3.9977 2.9 6.0462 6.0462 0 0 0 .7427 7.0966 5.98 5.98 0 0 0 .511 4.9107 6.051 6.051 0 0 0 6.5146 2.9001A5.9847 5.9847 0 0 0 13.2599 24a6.0557 6.0557 0 0 0 5.7718-4.2058 5.9894 5.9894 0 0 0 3.9977-2.9001 6.0557 6.0557 0 0 0-.7475-7.0729zm-9.022 12.6081a4.4755 4.4755 0 0 1-2.8764-1.0408l.1419-.0804 4.7783-2.7582a.7948.7948 0 0 0 .3927-.6813v-6.7369l2.02 1.1686a.071.071 0 0 1 .038.052v5.5826a4.504 4.504 0 0 1-4.4945 4.4944zm-9.6607-4.1254a4.4708 4.4708 0 0 1-.5346-3.0137l.142.0852 4.783 2.7582a.7712.7712 0 0 0 .7806 0l5.8428-3.3685v2.3324a.0804.0804 0 0 1-.0332.0615L9.74 19.9502a4.4992 4.4992 0 0 1-6.1408-1.6464zM2.3408 7.8956a4.485 4.485 0 0 1 2.3655-1.9728V11.6a.7664.7664 0 0 0 .3879.6765l5.8144 3.3543-2.0201 1.1685a.0757.0757 0 0 1-.071 0l-4.8303-2.7865A4.504 4.504 0 0 1 2.3408 7.872zm16.5963 3.8558L13.1038 8.364 15.1192 7.2a.0757.0757 0 0 1 .071 0l4.8303 2.7913a4.4944 4.4944 0 0 1-.6765 8.1042v-5.6772a.79.79 0 0 0-.407-.667zm2.0107-3.0231l-.142-.0852-4.7735-2.7818a.7759.7759 0 0 0-.7854 0L9.409 9.2297V6.8974a.0662.0662 0 0 1 .0284-.0615l4.8303-2.7866a4.4992 4.4992 0 0 1 6.6802 4.66zM8.3065 12.863l-2.02-1.1638a.0804.0804 0 0 1-.038-.0567V6.0742a4.4992 4.4992 0 0 1 7.3757-3.4537l-.142.0805L8.704 5.459a.7948.7948 0 0 0-.3927.6813zm1.0976-2.3654l2.602-1.4998 2.6069 1.4998v2.9994l-2.5974 1.4997-2.6067-1.4997Z"/></svg>
<text x="286" y="712" fill="#eef2f8" fill-opacity="1.0" font-size="14.5" font-weight="500" text-anchor="middle">the agent</text>
<rect x="471.0" y="638" width="325.0" height="96" rx="14" fill="#191630" stroke="#9b8cf5" stroke-opacity="0.65" stroke-width="1.4"/>
<svg x="621.5" y="660.0" width="24.0" height="24" viewBox="0 0 24 24" fill="#ffffff"><path d="M24 12a3 3 0 1 1-6 0 3 3 0 0 1 6 0zm-9 9a3 3 0 1 1-6 0 3 3 0 0 1 6 0zm0-9a3 3 0 1 1-6 0 3 3 0 0 1 6 0zm6-6a3 3 0 1 1 0-6 3 3 0 0 1 0 6zm0-.5a2.5 2.5 0 1 0 0-5 2.5 2.5 0 0 0 0 5zM3 24a3 3 0 1 1 0-6 3 3 0 0 1 0 6zm0-.5a2.5 2.5 0 1 0 0-5 2.5 2.5 0 0 0 0 5zm18 .5a3 3 0 1 1 0-6 3 3 0 0 1 0 6zm0-.5a2.5 2.5 0 1 0 0-5 2.5 2.5 0 0 0 0 5zM6 12a3 3 0 1 1-6 0 3 3 0 0 1 6 0zm9-9a3 3 0 1 1-6 0 3 3 0 0 1 6 0zm-3 2.5a2.5 2.5 0 1 0 0-5 2.5 2.5 0 0 0 0 5zM6 3a3 3 0 1 1-6 0 3 3 0 0 1 6 0zM3 5.5a2.5 2.5 0 1 0 0-5 2.5 2.5 0 0 0 0 5z"/></svg>
<text x="634" y="712" fill="#eef2f8" fill-opacity="1.0" font-size="14.5" font-weight="500" text-anchor="middle">its own network</text>
<rect x="850" y="524" width="320" height="170" rx="16" fill="#07211f" stroke="#4fd1c0" stroke-opacity="0.65" stroke-width="1.4"/>
<text x="1010" y="598" fill="#eef2f8" fill-opacity="1.0" font-size="19" font-weight="600" text-anchor="middle">Terminal</text>
<text x="1010" y="624" fill="#4fd1c0" fill-opacity="0.75" font-size="12.5" font-weight="400" text-anchor="middle" font-family="ui-monospace, SFMono-Regular, Menlo, monospace">runner@acme.harness.eth</text>
<g stroke="#8d97a6" stroke-opacity="0.7" stroke-width="1.5" fill="none"><rect x="899.0" y="722" width="30" height="19" rx="2.5"/><path d="M894.0 746 H934.0" stroke-linecap="round"/></g>
<g stroke="#8d97a6" stroke-opacity="0.7" stroke-width="1.5" fill="none"><rect x="953.0" y="721" width="14" height="25" rx="3"/></g>
<g stroke="#8d97a6" stroke-opacity="0.7" stroke-width="1.5" fill="none"><rect x="999.0" y="727" width="14" height="14" rx="3"/><path d="M1002.0 727 V721 M1010.0 727 V721 M1002.0 741 V747 M1010.0 741 V747" stroke-linecap="round"/></g>
<text x="1050" y="739" fill="#8d97a6" fill-opacity="0.7" font-size="12.5" font-weight="400" text-anchor="start">mobile · watch · laptop</text>
<path d="M1170 609.0 H1258 V58 H210 V266" fill="none" stroke="#e8a33d" stroke-opacity="0.75" stroke-width="1.8" marker-end="url(#a)"/>
<text x="1284" y="334" fill="#e8a33d" fill-opacity="0.85" font-size="15" text-anchor="middle" transform="rotate(-90 1284 334)">human in the loop</text>
<text x="938" y="44" fill="#e8a33d" fill-opacity="0.6" font-size="12.5" font-weight="400" text-anchor="middle">over the ceiling, the agent stops and sends the payment back</text>
</svg>